<?xml version="1.0" standalone="no"?>
<!DOCTYPE svg PUBLIC "-//W3C//DTD SVG 20010904//EN"
 "http://www.w3.org/TR/2001/REC-SVG-20010904/DTD/svg10.dtd">
<svg version="1.0" xmlns="http://www.w3.org/2000/svg"
  viewBox="0 0 244.000000 230.000000"
 preserveAspectRatio="xMidYMid meet">
<metadata>
Created by potrace 1.10, written by Peter Selinger 2001-2011
</metadata>
<g transform="translate(0.000000,230.000000) scale(0.050000,-0.050000)"
fill="silver" stroke="none">
<path d="M2270 3893 c-22 -12 -74 -42 -115 -67 -41 -25 -84 -46 -96 -46 -12 0
-51 -22 -87 -50 -36 -27 -71 -50 -77 -50 -6 0 -59 -33 -118 -72 -59 -40 -125
-81 -147 -91 -22 -10 -103 -54 -180 -98 -77 -44 -163 -89 -191 -100 -28 -11
-82 -36 -120 -55 l-69 -34 -5 -769 c-5 -671 -10 -773 -37 -804 -35 -38 83
-217 142 -217 14 0 36 -13 50 -30 14 -16 42 -30 62 -30 21 0 98 -32 172 -71
73 -39 183 -89 242 -109 60 -21 138 -61 175 -89 36 -28 79 -51 96 -51 16 0 33
-11 39 -25 5 -14 54 -47 107 -74 53 -27 111 -59 127 -72 79 -61 169 -51 370
42 55 25 163 75 240 110 77 36 169 86 204 112 35 26 68 47 73 47 16 0 422 243
433 259 6 9 44 27 85 42 41 15 75 39 75 53 0 14 14 26 30 26 26 0 30 111 30
878 0 975 11 901 -137 903 -180 1 -556 131 -785 271 -62 37 -120 68 -128 68
-20 0 -297 141 -310 158 -28 36 -112 56 -150 35z m230 -283 c94 -49 192 -99
218 -110 27 -12 86 -47 133 -78 89 -60 325 -162 376 -162 16 0 55 -13 86 -28
106 -52 208 -92 237 -92 24 0 27 -38 18 -225 -12 -235 20 -1083 44 -1183 9
-37 7 -53 -6 -46 -11 7 -55 -14 -98 -46 -43 -32 -87 -59 -98 -60 -11 -1 -55
-28 -99 -61 -43 -32 -94 -59 -113 -59 -20 0 -41 -9 -48 -20 -7 -11 -30 -20
-52 -20 -115 0 -457 -202 -502 -295 -43 -89 -160 -103 -303 -36 -62 30 -113
61 -113 70 0 42 -376 261 -448 261 -12 0 -125 51 -252 113 l-230 114 5 721 c6
813 -8 745 165 825 162 75 472 234 500 256 17 14 61 37 98 51 37 15 90 48 117
73 28 26 80 57 117 71 38 13 68 31 68 40 0 22 -11 26 180 -74z"/>
<path d="M2229 3159 c-7 -11 -3 -32 8 -46 15 -18 6 -50 -30 -114 -72 -126
-178 -322 -279 -513 -48 -90 -96 -180 -107 -200 -32 -58 -161 -341 -161 -354
0 -7 -22 -48 -50 -92 -27 -44 -50 -93 -50 -110 0 -20 -19 -30 -58 -30 -57 0
-113 -42 -88 -67 41 -41 351 -13 339 31 -10 38 86 275 127 316 6 6 36 62 68
125 l59 115 389 0 388 0 146 -145 c81 -80 175 -171 209 -203 l64 -57 -53 -55
c-69 -72 -47 -83 138 -67 152 13 203 48 112 77 -25 8 -40 30 -40 61 0 94 -113
249 -241 332 -27 18 -72 74 -98 125 -26 50 -54 92 -63 92 -9 0 -49 43 -88 95
-40 52 -139 167 -220 255 -180 195 -310 353 -310 377 0 45 -89 86 -111 52z
m295 -603 c143 -166 153 -156 -155 -156 -150 0 -269 7 -266 15 46 104 109 205
129 205 30 0 68 104 69 188 0 61 1 60 68 -45 38 -59 107 -152 155 -207z"/>
</g>
</svg>
