<?xml version="1.0" standalone="no"?>
<!DOCTYPE svg PUBLIC "-//W3C//DTD SVG 20010904//EN"
 "http://www.w3.org/TR/2001/REC-SVG-20010904/DTD/svg10.dtd">
<svg version="1.0" xmlns="http://www.w3.org/2000/svg"
  viewBox="0 0 732.000000 690.000000"
 preserveAspectRatio="xMidYMid meet">
<metadata>
Created by potrace 1.10, written by Peter Selinger 2001-2011
</metadata>
<g transform="translate(0.000000,690.000000) scale(0.100000,-0.100000)"
fill="silver" stroke="none">
<path d="M3527 6052 c-22 -24 -23 -105 -2 -122 8 -7 15 -27 15 -44 0 -24 10
-42 45 -76 41 -40 45 -49 45 -91 0 -29 6 -51 15 -59 8 -7 15 -20 15 -29 0 -9
35 -51 78 -94 l77 -77 61 0 c43 0 65 5 74 15 7 8 20 15 30 15 10 0 23 7 30 15
7 8 20 15 30 15 10 0 23 7 30 15 7 8 27 15 44 15 23 0 41 9 61 30 26 27 35 30
91 30 42 0 65 5 74 15 7 8 28 15 46 15 l34 0 0 50 0 50 -64 0 c-44 0 -67 -5
-76 -15 -8 -9 -30 -15 -60 -15 -30 0 -52 -6 -60 -15 -7 -8 -20 -15 -30 -15
-10 0 -23 -7 -30 -15 -7 -8 -27 -15 -44 -15 -23 0 -41 -9 -61 -30 -20 -21 -38
-30 -61 -30 -17 0 -37 -7 -44 -16 -12 -13 -21 -8 -72 43 -32 31 -58 65 -58 74
0 9 -7 22 -15 29 -8 7 -15 27 -15 45 0 18 -7 38 -15 45 -8 7 -15 20 -15 29 0
10 -13 30 -30 46 -21 20 -30 38 -30 61 0 17 -7 37 -15 44 -8 7 -15 28 -15 46
0 32 -2 34 -33 34 -20 0 -41 -8 -50 -18z"/>
<path d="M3073 5900 c-24 -26 -43 -54 -43 -62 0 -9 -7 -21 -15 -28 -8 -7 -15
-20 -15 -30 0 -10 -7 -23 -15 -30 -10 -9 -15 -32 -15 -74 0 -35 -5 -67 -12
-74 -8 -8 -66 -12 -192 -12 l-181 0 -47 -46 c-27 -25 -48 -46 -48 -48 0 -1 74
-76 165 -166 91 -90 165 -172 165 -181 0 -10 14 -29 30 -42 17 -14 30 -34 30
-45 0 -28 32 -52 68 -52 32 0 32 1 32 49 0 31 -5 53 -15 61 -8 7 -15 20 -15
30 0 10 -7 23 -15 30 -8 7 -15 20 -15 29 0 10 -54 71 -120 136 -70 68 -119
124 -116 132 4 10 43 13 166 13 147 0 160 1 160 18 0 23 19 42 42 42 15 0 18
9 18 64 0 43 5 67 14 76 8 6 16 28 18 47 4 43 29 64 56 47 9 -6 18 -20 20 -31
2 -11 16 -33 33 -48 20 -20 29 -38 29 -60 0 -23 11 -41 45 -75 34 -33 45 -52
45 -75 0 -23 11 -42 45 -75 25 -24 45 -52 45 -61 0 -29 34 -49 83 -49 47 0 47
0 47 34 0 18 -7 39 -15 46 -8 7 -15 20 -15 30 0 10 -7 23 -15 30 -8 7 -15 21
-15 31 0 12 -7 19 -18 19 -27 0 -42 20 -42 57 0 25 -4 33 -18 33 -23 0 -42 19
-42 41 0 9 -7 22 -15 29 -8 7 -15 28 -15 46 0 26 -4 34 -18 34 -23 0 -42 19
-42 41 0 9 -7 22 -15 29 -8 7 -15 20 -15 29 0 22 -61 81 -83 81 -10 0 -20 7
-23 15 -10 24 -26 16 -71 -35z"/>
<path d="M2176 5394 c-21 -24 -46 -44 -55 -44 -9 0 -37 -20 -61 -45 -24 -25
-52 -45 -61 -45 -9 0 -22 -7 -29 -15 -7 -8 -20 -15 -29 -15 -9 0 -37 -20 -61
-45 -24 -25 -52 -45 -61 -45 -9 0 -22 -7 -29 -15 -7 -8 -20 -15 -29 -15 -21 0
-81 -60 -81 -81 0 -24 34 -49 66 -49 21 0 40 10 59 30 20 21 38 30 60 30 22 0
40 9 60 30 16 17 36 30 45 30 9 0 36 -20 60 -45 24 -25 51 -45 60 -45 20 0 40
-19 40 -40 0 -8 34 -49 75 -90 41 -41 75 -82 75 -90 0 -9 15 -30 33 -48 28
-27 41 -32 80 -32 47 0 47 0 47 34 0 26 -7 41 -30 59 -16 14 -30 34 -30 45 0
22 -30 52 -51 52 -20 0 -39 20 -39 40 0 9 -13 29 -30 45 -16 16 -30 36 -30 45
0 20 -31 50 -51 50 -20 0 -39 20 -39 42 0 11 -7 18 -19 18 -26 0 -44 23 -29
38 7 7 20 12 30 12 11 0 18 7 18 18 0 27 20 42 57 42 25 0 33 4 33 18 0 10 14
31 30 47 37 36 43 95 10 95 -11 0 -23 7 -26 15 -10 24 -26 16 -68 -31z"/>
<path d="M4880 5245 c-9 -11 -35 -15 -105 -15 -70 0 -96 -4 -105 -15 -7 -8
-20 -15 -30 -15 -10 0 -23 -7 -30 -15 -8 -9 -30 -15 -60 -15 -30 0 -52 -6 -60
-15 -7 -8 -27 -15 -45 -15 -18 0 -38 -7 -45 -15 -7 -8 -20 -15 -30 -15 -10 0
-23 -7 -30 -15 -7 -8 -20 -15 -30 -15 -10 0 -23 -7 -30 -15 -9 -10 -32 -15
-74 -15 -56 0 -65 -3 -91 -30 -21 -22 -38 -30 -62 -30 -21 0 -36 -6 -39 -15
-4 -10 -20 -15 -44 -15 -21 0 -43 -7 -50 -15 -7 -8 -20 -15 -29 -15 -10 0 -30
-13 -46 -30 -24 -25 -37 -30 -76 -30 -29 0 -51 -6 -59 -15 -7 -8 -20 -15 -30
-15 -10 0 -23 -7 -30 -15 -7 -8 -20 -15 -29 -15 -10 0 -30 -13 -46 -30 -16
-16 -36 -30 -46 -30 -9 0 -22 -7 -29 -15 -7 -8 -20 -15 -30 -15 -10 0 -23 -7
-30 -15 -7 -8 -20 -15 -30 -15 -10 0 -23 -7 -30 -15 -7 -8 -20 -15 -30 -15
-10 0 -23 -7 -30 -15 -7 -8 -20 -15 -30 -15 -10 0 -23 -7 -30 -15 -7 -8 -20
-15 -30 -15 -10 0 -23 -7 -30 -15 -7 -8 -20 -15 -29 -15 -10 0 -30 -13 -46
-30 -24 -25 -37 -30 -75 -30 -38 0 -51 -5 -75 -30 -24 -25 -37 -30 -75 -30
-38 0 -51 -5 -75 -30 -16 -16 -36 -30 -46 -30 -9 0 -22 -7 -29 -15 -7 -8 -27
-15 -44 -15 -24 0 -42 -10 -76 -45 -43 -44 -46 -45 -106 -45 -42 0 -65 -5 -74
-15 -7 -8 -20 -15 -29 -15 -10 0 -30 -13 -46 -30 -16 -16 -36 -30 -46 -30 -9
0 -22 -7 -29 -15 -7 -8 -20 -15 -30 -15 -10 0 -23 -7 -30 -15 -7 -8 -20 -15
-30 -15 -10 0 -23 -7 -30 -15 -7 -8 -20 -15 -29 -15 -10 0 -30 -13 -46 -30
-16 -16 -37 -30 -47 -30 -10 0 -21 -7 -24 -15 -4 -10 -19 -15 -43 -15 -28 0
-44 -7 -66 -30 -16 -16 -36 -30 -45 -30 -9 0 -36 -20 -60 -45 -33 -34 -52 -45
-75 -45 -24 0 -43 -13 -90 -60 -33 -33 -67 -60 -76 -60 -9 0 -22 -7 -29 -15
-7 -8 -20 -15 -29 -15 -10 0 -30 -13 -46 -30 -16 -16 -36 -30 -45 -30 -25 0
-50 -33 -50 -66 0 -22 12 -41 45 -74 25 -24 45 -51 45 -60 0 -20 151 -170 171
-170 20 0 39 -20 39 -42 0 -11 7 -18 18 -18 10 0 23 -5 30 -12 7 -7 12 -20 12
-30 0 -10 7 -18 17 -18 23 0 73 -49 73 -72 0 -13 8 -18 25 -18 20 0 27 -6 31
-30 4 -18 13 -30 22 -30 22 0 72 -50 72 -72 0 -11 7 -18 18 -18 10 0 23 -5 30
-12 7 -7 12 -20 12 -30 0 -11 7 -18 18 -18 22 0 42 -19 42 -40 0 -20 31 -50
50 -50 21 0 70 -51 70 -72 0 -11 7 -18 18 -18 23 0 72 -50 72 -73 0 -10 8 -17
18 -17 9 0 78 -61 152 -135 74 -74 142 -135 150 -135 9 0 42 -27 75 -60 33
-33 66 -60 75 -60 9 0 42 -27 75 -60 33 -33 66 -60 75 -60 21 0 40 -20 40 -42
0 -11 7 -18 18 -18 23 0 42 -19 42 -42 0 -11 7 -18 19 -18 10 0 24 -7 31 -15
7 -8 20 -15 29 -15 22 0 41 -19 41 -40 0 -21 31 -50 52 -50 9 0 21 -7 28 -15
7 -8 20 -15 30 -15 10 0 23 -7 30 -15 7 -8 20 -15 29 -15 21 0 71 -50 71 -71
0 -8 20 -35 45 -59 25 -24 45 -52 45 -62 0 -11 7 -18 18 -18 23 0 42 -19 42
-42 0 -11 7 -18 18 -18 9 0 58 -40 107 -90 49 -49 97 -90 106 -90 9 0 22 -7
29 -15 9 -11 35 -15 105 -15 70 0 96 -4 105 -15 11 -13 90 -15 600 -15 510 0
589 -2 600 -15 16 -19 74 -19 90 0 8 10 30 15 61 15 41 0 49 3 49 19 0 10 7
24 15 31 8 7 15 27 15 45 0 18 7 38 15 45 8 7 15 20 15 30 0 10 7 23 15 30 8
7 15 20 15 29 0 9 20 37 45 61 25 24 45 51 45 60 0 9 14 29 30 45 17 16 30 36
30 45 0 9 20 36 45 60 37 37 45 51 45 81 0 24 5 39 15 43 8 3 15 14 15 24 0
10 14 31 30 47 25 24 30 37 30 75 0 38 5 51 30 75 17 16 30 36 30 46 0 9 7 22
15 29 8 7 15 20 15 29 0 10 14 30 30 46 21 20 30 38 30 61 0 17 7 37 15 44 8
7 15 20 15 29 0 10 14 30 30 46 21 20 30 38 30 61 0 17 7 37 15 44 8 7 15 20
15 30 0 10 7 23 15 30 9 8 15 30 15 60 0 30 6 52 15 60 9 8 15 30 15 59 0 42
-4 51 -45 91 -25 24 -45 52 -45 61 0 9 -7 22 -15 29 -11 9 -15 33 -15 90 0 57
-4 81 -15 90 -8 7 -15 20 -15 29 0 10 -13 30 -30 46 -25 24 -30 37 -30 76 0
29 -6 51 -15 59 -8 7 -15 20 -15 30 0 10 -7 23 -15 30 -8 7 -15 20 -15 29 0
10 -13 30 -30 46 -16 16 -30 36 -30 46 0 9 -7 22 -15 29 -10 9 -15 32 -15 75
0 43 -5 66 -15 75 -8 7 -15 27 -15 45 0 18 -7 38 -15 45 -8 7 -15 27 -15 44 0
24 -10 42 -45 76 -25 24 -45 51 -45 60 0 9 -13 29 -30 45 -21 20 -30 38 -30
60 0 23 -11 41 -45 75 -35 34 -45 52 -45 76 0 17 -7 37 -15 44 -8 7 -15 20
-15 30 0 10 -7 23 -15 30 -8 7 -15 27 -15 45 0 18 -7 38 -15 45 -8 7 -15 20
-15 29 0 9 -20 37 -45 61 -25 24 -45 52 -45 61 0 9 -7 22 -15 29 -8 7 -15 20
-15 29 0 10 -13 30 -30 46 -16 16 -30 36 -30 46 0 9 -7 22 -15 29 -8 7 -15 20
-15 29 0 10 -13 30 -30 46 -21 20 -30 38 -30 61 0 17 -7 37 -15 44 -8 7 -15
20 -15 29 0 10 -13 30 -30 46 -21 20 -30 38 -30 60 0 22 -9 40 -30 60 -16 16
-30 36 -30 46 0 9 -7 22 -15 29 -8 7 -15 21 -15 31 0 15 -7 19 -34 19 -18 0
-39 -7 -46 -15z m-467 -1043 c23 -24 27 -37 27 -87 0 -56 -2 -62 -42 -102 -23
-24 -50 -43 -59 -43 -9 0 -22 -7 -29 -15 -7 -8 -20 -15 -30 -15 -10 0 -23 -7
-30 -15 -7 -8 -20 -15 -30 -15 -10 0 -23 -7 -30 -15 -7 -8 -20 -15 -30 -15
-10 0 -23 -7 -30 -15 -7 -8 -20 -15 -30 -15 -10 0 -23 -7 -30 -15 -7 -8 -20
-15 -30 -15 -10 0 -23 -7 -30 -15 -7 -8 -20 -15 -30 -15 -10 0 -23 -7 -30 -15
-7 -8 -20 -15 -30 -15 -10 0 -23 -7 -30 -15 -7 -8 -20 -15 -30 -15 -10 0 -23
-7 -30 -15 -7 -8 -20 -15 -30 -15 -10 0 -23 -7 -30 -15 -7 -8 -20 -15 -29 -15
-10 0 -30 -13 -46 -30 -16 -16 -36 -30 -46 -30 -9 0 -22 -7 -29 -15 -7 -8 -20
-15 -30 -15 -10 0 -23 -7 -30 -15 -7 -8 -21 -15 -32 -15 -10 0 -21 -7 -24 -15
-4 -8 -16 -15 -29 -15 -12 0 -28 -7 -35 -15 -7 -8 -20 -15 -30 -15 -10 0 -23
-7 -30 -15 -7 -8 -20 -15 -30 -15 -10 0 -23 -7 -30 -15 -7 -8 -20 -15 -30 -15
-10 0 -23 -7 -30 -15 -7 -8 -20 -15 -30 -15 -10 0 -23 -7 -30 -15 -7 -8 -20
-15 -29 -15 -17 -1 -51 -23 -51 -34 0 -4 14 -19 30 -33 17 -13 30 -32 30 -42
0 -9 47 -63 105 -121 58 -58 105 -111 105 -119 0 -8 14 -30 32 -48 35 -36 86
-45 108 -18 7 8 20 15 30 15 10 0 23 7 30 15 7 8 20 15 30 15 10 0 23 7 30 15
7 8 21 15 32 15 10 0 21 7 24 15 4 8 16 15 29 15 12 0 28 7 35 15 7 8 20 15
30 15 10 0 23 7 30 15 7 8 20 15 30 15 10 0 23 7 30 15 7 8 20 15 30 15 10 0
23 7 30 15 7 8 20 15 30 15 10 0 23 7 30 15 7 8 20 15 30 15 10 0 23 7 30 15
7 8 20 15 30 15 10 0 23 7 30 15 7 8 20 15 30 15 10 0 23 7 30 15 7 8 20 15
30 15 10 0 23 7 30 15 7 8 20 15 30 15 10 0 23 7 30 15 7 8 20 15 30 15 10 0
23 7 30 15 7 8 27 15 45 15 18 0 38 7 45 15 7 8 20 15 30 15 10 0 23 7 30 15
9 10 32 15 75 15 43 0 66 -5 75 -15 7 -8 20 -15 29 -15 23 -1 101 -77 101 -99
0 -10 7 -24 15 -31 8 -7 15 -20 15 -30 0 -10 7 -23 15 -30 8 -7 15 -20 15 -30
0 -10 7 -23 15 -30 8 -7 15 -20 15 -30 0 -10 7 -23 15 -30 8 -7 15 -20 15 -29
0 -10 14 -30 30 -46 17 -16 30 -36 30 -46 0 -9 7 -22 15 -29 8 -7 15 -20 15
-30 0 -10 7 -23 15 -30 8 -7 15 -20 15 -30 0 -10 7 -23 15 -30 8 -7 15 -20 15
-30 0 -10 7 -23 15 -30 10 -9 15 -32 15 -74 0 -56 -3 -65 -30 -91 -16 -16 -30
-36 -30 -44 0 -21 -380 -401 -401 -401 -8 0 -28 -13 -44 -30 l-29 -30 -420 0
-420 0 -28 27 c-15 15 -28 34 -28 43 0 8 -34 49 -75 90 l-75 74 0 60 c0 51 4
64 27 88 24 25 34 28 88 28 l61 0 74 -75 74 -75 331 0 330 0 170 170 c146 147
168 172 153 181 -10 5 -18 19 -18 30 0 11 -7 22 -15 25 -8 4 -15 16 -15 29 0
12 -7 28 -15 35 -8 7 -15 20 -15 30 0 10 -7 23 -15 30 -8 7 -15 20 -15 29 0
10 -13 30 -30 46 -16 16 -30 36 -30 46 0 9 -7 22 -15 29 -8 7 -15 20 -15 30 0
10 -7 23 -15 30 -8 7 -15 20 -15 29 -1 20 -23 51 -38 51 -5 0 -12 -7 -16 -15
-3 -8 -14 -15 -24 -15 -11 0 -25 -7 -32 -15 -7 -8 -20 -15 -30 -15 -10 0 -23
-7 -30 -15 -7 -8 -20 -15 -30 -15 -10 0 -23 -7 -30 -15 -7 -8 -21 -15 -32 -15
-10 0 -21 -7 -24 -15 -4 -8 -16 -15 -29 -15 -12 0 -28 -7 -35 -15 -7 -8 -20
-15 -30 -15 -10 0 -23 -7 -30 -15 -7 -8 -20 -15 -30 -15 -10 0 -23 -7 -30 -15
-7 -8 -20 -15 -30 -15 -10 0 -23 -7 -30 -15 -7 -8 -20 -15 -30 -15 -10 0 -23
-7 -30 -15 -7 -8 -20 -15 -30 -15 -10 0 -23 -7 -30 -15 -7 -8 -20 -15 -30 -15
-10 0 -23 -7 -30 -15 -7 -8 -20 -15 -30 -15 -10 0 -23 -7 -30 -15 -7 -8 -20
-15 -30 -15 -10 0 -23 -7 -30 -15 -7 -8 -20 -15 -30 -15 -10 0 -23 -7 -30 -15
-7 -8 -20 -15 -30 -15 -10 0 -23 -7 -30 -15 -7 -8 -20 -15 -30 -15 -10 0 -23
-7 -30 -15 -9 -11 -33 -15 -89 -15 -73 0 -79 2 -106 30 -20 21 -38 30 -60 30
-25 0 -46 15 -118 88 -48 48 -87 94 -87 102 0 9 -47 62 -105 120 -58 58 -105
112 -105 120 0 9 -20 36 -45 60 l-45 44 0 91 c0 87 1 93 28 118 15 15 36 27
45 27 10 0 20 7 23 15 4 8 16 15 28 15 12 0 35 14 51 30 16 17 36 30 46 30 9
0 22 7 29 15 7 8 20 15 30 15 10 0 23 7 30 15 7 8 20 15 30 15 10 0 23 7 30
15 7 8 20 15 30 15 10 0 23 7 30 15 7 8 20 15 30 15 10 0 23 7 30 15 7 8 20
15 30 15 10 0 23 7 30 15 7 8 20 15 30 15 10 0 23 7 30 15 7 8 20 15 30 15 10
0 23 7 30 15 7 8 20 15 30 15 10 0 23 7 30 15 7 8 20 15 30 15 10 0 23 7 30
15 7 8 20 15 29 15 10 0 30 14 46 30 16 17 36 30 46 30 9 0 22 7 29 15 7 8 21
15 32 15 10 0 21 7 24 15 4 8 16 15 29 15 12 0 28 7 35 15 7 8 20 15 30 15 10
0 23 7 30 15 7 8 20 15 30 15 10 0 23 7 30 15 7 8 20 15 30 15 10 0 23 7 30
15 7 8 20 15 30 15 10 0 23 7 30 15 7 8 20 15 30 15 10 0 23 7 30 15 7 8 20
15 30 15 10 0 23 7 30 15 9 10 32 15 74 15 55 0 65 -3 89 -28z"/>
<path d="M1487 4972 c-23 -25 -24 -134 -2 -152 8 -7 15 -20 15 -30 0 -10 7
-23 15 -30 8 -7 15 -26 15 -43 0 -44 -101 -147 -144 -147 -20 0 -41 -10 -62
-31 -35 -33 -54 -32 -54 5 0 12 -13 35 -30 51 -17 16 -30 36 -30 46 0 9 -7 22
-15 29 -8 7 -15 28 -15 46 0 32 -2 34 -33 34 -46 0 -67 -26 -67 -81 0 -37 5
-50 30 -74 17 -16 30 -36 30 -45 0 -8 34 -49 75 -90 41 -41 75 -81 75 -90 0
-20 181 -200 201 -200 9 0 22 -7 29 -15 8 -10 30 -15 61 -15 49 0 49 0 49 33
0 35 -25 67 -51 67 -21 0 -223 206 -215 219 4 6 31 11 59 11 51 0 55 2 112 60
71 72 104 78 150 30 16 -16 36 -30 45 -30 8 0 49 -34 90 -75 62 -63 80 -75
107 -75 33 0 33 0 33 48 0 44 -4 52 -48 95 -26 26 -55 47 -63 47 -20 0 -69 52
-69 73 0 9 -8 17 -17 17 -22 0 -133 109 -133 131 0 9 -7 22 -15 29 -8 7 -15
20 -15 30 0 10 -7 23 -15 30 -10 8 -15 30 -15 61 0 49 0 49 -33 49 -20 0 -41
-8 -50 -18z"/>
</g>
</svg>
