<?xml version="1.0" standalone="no"?>
<!DOCTYPE svg PUBLIC "-//W3C//DTD SVG 20010904//EN"
 "http://www.w3.org/TR/2001/REC-SVG-20010904/DTD/svg10.dtd">
<svg version="1.0" xmlns="http://www.w3.org/2000/svg"
  viewBox="0 0 732.000000 690.000000"
 preserveAspectRatio="xMidYMid meet">
<metadata>
Created by potrace 1.10, written by Peter Selinger 2001-2011
</metadata>
<g transform="translate(0.000000,690.000000) scale(0.100000,-0.100000)"
fill="silver" stroke="none">
<path d="M3175 5091 c-60 -22 -96 -45 -149 -95 -33 -31 -64 -56 -69 -56 -5 0
-26 -13 -47 -30 -21 -16 -42 -30 -47 -30 -5 0 -23 -13 -39 -30 -26 -26 -36
-29 -90 -30 -42 0 -65 -5 -74 -15 -7 -8 -19 -15 -26 -15 -8 0 -33 -13 -56 -30
-25 -18 -53 -30 -73 -30 -17 0 -40 -7 -51 -15 -10 -8 -26 -15 -34 -15 -25 -1
-56 -34 -84 -86 -14 -27 -47 -79 -73 -115 -26 -37 -61 -85 -78 -108 -16 -23
-45 -60 -62 -82 -19 -23 -33 -52 -33 -68 0 -17 -15 -43 -45 -76 -25 -28 -45
-55 -45 -61 0 -24 -320 -334 -344 -334 -4 0 -19 -13 -34 -30 -26 -27 -79 -62
-147 -93 -51 -24 -77 -61 -83 -117 -4 -41 -12 -58 -41 -89 -72 -75 -96 -149
-71 -215 5 -14 17 -26 26 -26 10 0 26 -8 36 -17 12 -11 41 -18 81 -21 34 -2
76 -10 94 -18 17 -8 38 -14 46 -14 9 0 36 -11 61 -24 25 -13 68 -32 95 -41 27
-9 57 -25 67 -37 11 -11 43 -36 72 -54 28 -19 52 -41 52 -50 0 -18 302 -324
320 -324 7 0 28 -14 47 -30 18 -17 39 -30 46 -30 7 0 33 -20 57 -45 49 -49 64
-53 108 -28 30 17 30 17 63 -15 18 -18 40 -32 50 -32 9 0 22 -7 29 -15 7 -8
18 -15 25 -15 7 0 55 -40 106 -90 52 -49 99 -90 105 -90 6 0 17 -7 24 -15 7
-8 20 -15 29 -15 10 0 30 -13 46 -30 24 -25 36 -30 77 -30 38 0 54 -6 81 -30
19 -16 42 -30 50 -30 21 0 31 -18 19 -33 -19 -24 4 -55 48 -62 22 -4 53 -17
68 -29 15 -12 61 -39 102 -60 41 -21 88 -51 103 -67 16 -16 47 -39 69 -50 23
-12 64 -43 92 -69 28 -26 65 -55 83 -65 17 -10 36 -29 42 -41 21 -48 109 -122
213 -180 11 -7 40 -31 63 -54 41 -40 47 -42 85 -37 23 3 49 12 59 21 25 22 35
20 76 -16 27 -23 49 -32 85 -36 37 -3 55 -11 76 -33 l28 -29 133 0 c131 0 133
0 165 29 18 15 43 31 54 35 12 4 24 15 27 26 5 20 11 24 61 35 l29 6 -33 28
c-32 27 -33 28 -16 53 9 14 28 29 40 32 13 3 34 17 47 31 13 13 29 25 35 25
21 0 64 41 64 61 0 11 8 22 18 26 19 7 125 102 131 118 2 5 17 26 32 46 16 20
29 41 29 46 0 4 20 31 45 58 30 34 45 59 45 78 0 22 6 30 29 38 17 6 32 20 35
34 3 13 16 25 31 29 15 4 25 13 25 25 0 10 7 24 15 31 8 7 15 20 15 28 0 19
49 72 66 72 13 0 144 128 144 142 0 18 44 68 60 68 9 0 30 13 46 30 23 23 38
30 71 30 55 0 119 33 127 66 7 27 37 32 56 9 15 -18 71 -20 87 -4 6 6 33 15
59 20 26 5 51 15 56 22 4 6 8 99 8 205 l0 192 30 0 c17 0 30 5 30 11 0 18
-206 219 -224 219 -9 0 -16 -4 -16 -10 0 -5 -9 -10 -21 -10 -18 0 -20 4 -15
26 5 20 1 30 -26 52 -18 15 -49 44 -69 65 -20 20 -39 37 -44 37 -4 0 -24 14
-45 30 -21 17 -49 30 -63 30 -17 0 -40 15 -69 45 -38 39 -48 45 -87 45 -33 0
-52 7 -82 31 -30 24 -47 30 -70 27 -22 -4 -33 0 -40 14 -6 11 -21 18 -40 18
-22 0 -43 12 -78 45 -26 25 -53 45 -59 45 -6 0 -27 14 -45 30 -19 17 -42 30
-50 30 -9 0 -22 12 -29 26 -8 15 -38 40 -73 58 -58 31 -156 98 -187 129 -8 8
-51 34 -95 56 -89 45 -97 53 -107 94 -4 17 -19 35 -36 45 -17 9 -33 25 -36 35
-3 10 -18 23 -32 30 -15 6 -43 24 -63 39 -20 15 -40 28 -44 28 -4 0 -24 14
-45 30 -21 17 -41 30 -45 30 -4 0 -24 14 -45 30 -21 17 -42 30 -47 30 -6 0
-18 9 -28 20 -22 24 -116 70 -143 70 -10 0 -27 9 -38 21 -10 12 -32 28 -49 37
-16 8 -57 39 -89 68 -33 30 -65 54 -71 54 -7 0 -20 9 -31 21 -10 12 -35 29
-54 38 -22 10 -41 30 -53 54 -9 20 -23 37 -30 37 -15 0 -121 71 -162 109 -16
15 -52 41 -78 57 -134 80 -126 77 -232 80 -55 2 -109 0 -120 -5z m63 -558 c7
-11 25 -18 53 -19 24 -2 47 -3 50 -3 4 -1 9 -9 12 -20 2 -10 35 -37 73 -59 38
-22 87 -59 109 -81 21 -23 45 -41 52 -41 18 0 153 -135 153 -153 0 -7 12 -24
26 -38 14 -13 35 -39 46 -59 22 -36 66 -79 82 -80 5 0 41 -31 81 -69 48 -45
84 -71 106 -76 19 -4 48 -19 64 -35 52 -47 78 -60 121 -60 37 0 46 -5 78 -45
35 -42 40 -45 87 -45 44 0 56 -5 97 -40 47 -41 76 -60 122 -80 14 -6 36 -21
50 -33 49 -43 86 -57 152 -57 62 0 65 -1 107 -44 27 -28 56 -47 77 -50 18 -4
46 -13 61 -21 15 -8 32 -15 37 -15 5 0 33 -18 63 -41 29 -22 70 -46 91 -53 21
-8 55 -25 76 -40 21 -14 57 -31 80 -37 22 -6 47 -16 54 -21 10 -9 32 -12 124
-18 3 0 9 -18 13 -40 5 -28 2 -49 -10 -72 -10 -18 -20 -49 -24 -68 -5 -28 -11
-36 -31 -38 -81 -9 -136 -36 -202 -100 -43 -41 -68 -73 -68 -87 0 -26 -18 -51
-47 -68 -11 -7 -63 -49 -114 -94 -51 -46 -97 -83 -102 -83 -5 0 -29 -20 -54
-45 -24 -25 -49 -45 -54 -45 -6 0 -26 -12 -44 -26 -41 -31 -104 -64 -122 -64
-22 0 -65 -32 -83 -63 -10 -16 -43 -55 -74 -88 -31 -32 -56 -65 -56 -72 0 -17
-28 -43 -57 -51 -16 -5 -24 -18 -28 -44 -4 -20 -12 -50 -20 -67 -52 -119 -53
-125 -30 -125 17 0 20 -16 5 -25 -9 -6 -32 23 -59 78 -9 18 -30 41 -48 52 -18
11 -32 28 -33 37 0 21 -66 68 -94 68 -11 0 -36 15 -56 34 -19 19 -51 43 -70
53 -19 11 -43 37 -55 59 -11 22 -34 46 -51 55 -18 8 -46 27 -64 42 -17 15 -36
27 -42 27 -5 0 -27 13 -47 28 -20 15 -57 38 -83 50 -29 14 -48 30 -48 40 0 11
-19 26 -52 41 -29 13 -69 37 -89 52 -20 16 -40 29 -44 29 -4 0 -24 14 -45 30
-21 17 -41 30 -45 30 -4 0 -24 14 -45 30 -21 17 -41 30 -46 30 -15 0 -111 65
-151 103 -23 22 -57 49 -77 61 -19 11 -72 46 -118 76 -46 31 -131 80 -190 109
-60 30 -108 57 -108 61 0 4 -24 19 -53 33 -30 14 -66 42 -81 62 -15 19 -32 35
-38 35 -18 0 -98 41 -98 50 0 5 -20 18 -45 30 -25 12 -45 25 -45 30 0 5 -20
18 -45 30 -25 12 -45 25 -45 30 0 5 -20 18 -45 30 -25 12 -47 26 -51 31 -3 5
-16 9 -29 9 -13 0 -26 4 -29 9 -10 16 11 56 36 69 13 7 32 29 43 49 11 20 29
41 40 47 11 6 36 22 55 36 19 14 48 31 63 38 17 7 34 26 43 47 14 34 15 35 74
35 61 0 100 21 100 53 0 7 14 26 31 43 17 16 52 56 77 89 68 90 286 320 362
384 22 18 40 38 40 43 0 5 9 22 21 36 38 50 172 192 180 192 4 0 12 -8 17 -17z
m2087 -2093 c4 -6 21 -16 39 -24 34 -14 86 -69 86 -91 0 -7 7 -18 15 -25 9 -8
15 -30 15 -60 0 -30 -6 -52 -15 -60 -8 -7 -15 -18 -15 -26 0 -23 -59 -82 -103
-103 -26 -12 -65 -21 -102 -22 -80 -2 -146 35 -188 106 -42 71 -46 119 -13
182 48 91 110 131 208 132 37 1 70 -4 73 -9z"/>
</g>
</svg>
